<?xml version="1.0" standalone="no"?><!DOCTYPE svg PUBLIC "-//W3C//DTD SVG 1.1//EN" "http://www.w3.org/Graphics/SVG/1.1/DTD/svg11.dtd"><svg t="1775877739670" class="icon" viewBox="0 0 1024 1024" version="1.1" xmlns="http://www.w3.org/2000/svg" p-id="5788" xmlns:xlink="http://www.w3.org/1999/xlink" width="200" height="200"><path d="M750.6 546.8H273.4c-19.3 0-34.8-15.6-34.8-34.8V34.8c0-19.3 15.6-34.8 34.8-34.8h477.2c19.3 0 34.8 15.6 34.8 34.8V512c0 19.3-15.6 34.8-34.8 34.8z m-442.3-69.6h407.5V69.7H308.3v407.5z" fill="#999999" p-id="5789"></path><path d="M574.9 308.3H449.1c-19.3 0-34.8-15.6-34.8-34.8s15.6-34.8 34.8-34.8H575c19.3 0 34.8 15.6 34.8 34.8s-15.6 34.8-34.9 34.8zM512 1024H34.8C15.6 1024 0 1008.4 0 989.2V512c0-19.3 15.6-34.8 34.8-34.8H512c19.3 0 34.8 15.6 34.8 34.8v477.2c0 19.2-15.5 34.8-34.8 34.8zM69.7 954.3h407.5V546.8H69.7v407.5z" fill="#999999" p-id="5790"></path><path d="M336.4 785.4H210.5c-19.3 0-34.8-15.6-34.8-34.8 0-19.3 15.6-34.8 34.8-34.8h125.9c19.3 0 34.8 15.6 34.8 34.8 0 19.2-15.6 34.8-34.8 34.8z" fill="#999999" p-id="5791"></path><path d="M989.2 1024H512c-19.3 0-34.8-15.6-34.8-34.8V512c0-19.3 15.6-34.8 34.8-34.8h477.2c19.3 0 34.8 15.6 34.8 34.8v477.2c0 19.2-15.6 34.8-34.8 34.8z m-442.4-69.7h407.5V546.8H546.8v407.5z" fill="#999999" p-id="5792"></path><path d="M813.5 785.4H687.6c-19.3 0-34.8-15.6-34.8-34.8 0-19.3 15.6-34.8 34.8-34.8h125.9c19.3 0 34.8 15.6 34.8 34.8 0.1 19.2-15.5 34.8-34.8 34.8z" fill="#999999" p-id="5793"></path></svg>