<?xml version="1.0" standalone="no"?><!DOCTYPE svg PUBLIC "-//W3C//DTD SVG 1.1//EN" "http://www.w3.org/Graphics/SVG/1.1/DTD/svg11.dtd"><svg t="1775887524011" class="icon" viewBox="0 0 1024 1024" version="1.1" xmlns="http://www.w3.org/2000/svg" p-id="46050" xmlns:xlink="http://www.w3.org/1999/xlink" width="200" height="200"><path d="M1023.98976 512.00512c0 282.76224-229.20704 512-511.98464 512-282.76224 0-511.99488-229.23776-511.99488-512C0.01024 229.22752 229.24288-0.01024 512.00512-0.01024c282.7776 0.00512 511.98464 229.23776 511.98464 512.01536z" fill="#D8D1F5" p-id="46051"></path><path d="M647.58784 726.41024H372.59776V657.2544l121.15968-116.25984c25.41056-24.32 43.19744-44.73856 53.36576-61.2608 10.15808-16.51712 15.24736-33.664 15.24736-51.456 0-40.1152-21.504-60.17536-64.52736-60.17536-36.12672 0-71.06048 14.52544-104.82688 43.56608V333.53216c36.11648-23.9616 77.14304-35.9424 123.06432-35.9424 41.56416 0 74.51136 10.5728 98.83648 31.7184 24.32 21.1456 36.48 50.41664 36.48 87.80288 0 49.37728-29.94688 101.10464-89.84576 155.19744l-87.94112 79.22688v1.63328h173.97248v73.2416z" fill="#4B67A8" p-id="46052"></path></svg>
