<?xml version="1.0" standalone="no"?><!DOCTYPE svg PUBLIC "-//W3C//DTD SVG 1.1//EN" "http://www.w3.org/Graphics/SVG/1.1/DTD/svg11.dtd"><svg t="1775890317536" class="icon" viewBox="0 0 1024 1024" version="1.1" xmlns="http://www.w3.org/2000/svg" p-id="13808" xmlns:xlink="http://www.w3.org/1999/xlink" width="200" height="200"><path d="M228.261535 571.228899c26.91675-135.07302 143.375991-236.88839 283.742423-236.88839 140.355039 0 256.819876 101.821165 283.742423 236.88839l61.043213 0c-22.290687-167.024357-167.968118-296.113435-344.785835-296.113435S189.503213 404.204541 167.200934 571.228899L228.261535 571.228899zM512.003957 215.879026c16.024735 0 29.005534-13.24542 29.005534-29.603929L541.009492 127.056048c0-16.352513-12.980799-29.615321-29.005534-29.615321-16.030331 0-29.01113 13.262808-29.01113 29.615321l0 59.225045C482.992827 202.633606 495.973626 215.879026 512.003957 215.879026zM860.086757 346.590604l41.019589-41.871211c11.335115-11.559563 11.335115-30.317445 0-41.871211-11.329519-11.571155-29.684474-11.571155-41.019589 0l-41.019589 41.871211c-11.346707 11.571155-11.346707 30.317445 0 41.871211C830.385095 358.161758 848.768831 358.161758 860.086757 346.590604zM163.909765 346.590604c11.323723 11.571155 29.69027 11.571155 41.019589 0 11.329519-11.553767 11.329519-30.300057 0-41.871211l-41.019589-41.871211c-11.329519-11.571155-29.695866-11.571155-41.025385 0-11.317926 11.559563-11.317926 30.317445 0 41.871211L163.909765 346.590604zM918.103422 630.448148 105.898897 630.448148c-16.024535 0-29.005534 13.251216-29.005534 29.609525 0 16.352513 12.980799 29.603929 29.005534 29.603929l812.204525 0c16.024735 0 29.005334-13.251416 29.005334-29.603929C947.108756 643.699364 934.127957 630.448148 918.103422 630.448148zM889.097888 748.875055 134.904431 748.875055c-16.018939 0-29.01113 13.2742-29.01113 29.621117 0 16.358309 12.986595 29.615321 29.01113 29.615321l754.193457 0c16.013143 0 29.005534-13.262808 29.005534-29.615321C918.103422 762.149455 905.111031 748.875055 889.097888 748.875055zM802.070092 867.336738 221.92643 867.336738c-16.018939 0-29.005334 13.257012-29.005334 29.609525 0 16.358309 12.986595 29.615321 29.005334 29.615321l580.143663 0c16.030331 0 29.01133-13.262608 29.01133-29.615321C831.081223 880.587754 818.100424 867.336738 802.070092 867.336738z" fill="#272636" p-id="13809"></path></svg>