<?xml version="1.0" standalone="no"?><!DOCTYPE svg PUBLIC "-//W3C//DTD SVG 1.1//EN" "http://www.w3.org/Graphics/SVG/1.1/DTD/svg11.dtd"><svg t="1775887241810" class="icon" viewBox="0 0 1024 1024" version="1.1" xmlns="http://www.w3.org/2000/svg" p-id="40542" xmlns:xlink="http://www.w3.org/1999/xlink" width="200" height="200"><path d="M42.666667 170.666667a42.666667 42.666667 0 0 1 42.666666-42.666667h853.333334a42.666667 42.666667 0 0 1 42.666666 42.666667v640a42.666667 42.666667 0 0 1-42.666666 42.666666h-302.336l-94.165334 94.165334a42.666667 42.666667 0 0 1-60.330666 0L387.669333 853.333333H85.333333a42.666667 42.666667 0 0 1-42.666666-42.666666V170.666667z m85.333333 42.666666v554.666667h277.333333a42.666667 42.666667 0 0 1 30.165334 12.501333L512 857.002667l76.501333-76.501334A42.666667 42.666667 0 0 1 618.666667 768H896V213.333333H128z" fill="#000000" p-id="40543"></path><path d="M512 448a42.666667 42.666667 0 0 1 42.666667 42.666667V682.666667a42.666667 42.666667 0 1 1-85.333334 0v-192a42.666667 42.666667 0 0 1 42.666667-42.666667zM512 298.666667a42.666667 42.666667 0 0 1 42.666667 42.666666v21.333334a42.666667 42.666667 0 1 1-85.333334 0V341.333333a42.666667 42.666667 0 0 1 42.666667-42.666666z" fill="#000000" p-id="40544"></path></svg>