<?xml version="1.0" standalone="no"?><!DOCTYPE svg PUBLIC "-//W3C//DTD SVG 1.1//EN" "http://www.w3.org/Graphics/SVG/1.1/DTD/svg11.dtd"><svg t="1775877833474" class="icon" viewBox="0 0 1024 1024" version="1.1" xmlns="http://www.w3.org/2000/svg" p-id="13579" xmlns:xlink="http://www.w3.org/1999/xlink" width="200" height="200"><path d="M86.314667 938.666667c-22.485333 0-41.002667-16.64-43.392-38.016L42.666667 896V384c0-21.973333 17.066667-40.106667 38.912-42.410667L86.314667 341.333333h240.128V128c0-21.973333 17.066667-40.106667 38.912-42.410667L370.090667 85.333333h283.818666c22.485333 0 41.002667 16.64 43.392 38.016l0.256 4.650667-0.042666 384h240.170666c22.485333 0 41.002667 16.64 43.392 38.016L981.333333 554.666667v341.333333c0 23.552-19.541333 42.666667-43.648 42.666667H86.314667z m240.128-512H130.005333v426.666666H326.4V426.666667z m283.776-256H413.781333v682.666666h196.437334V170.666667z m283.776 426.666666H697.6v256h196.437333v-256z" fill="#000000" p-id="13580"></path></svg>