<?xml version="1.0" standalone="no"?><!DOCTYPE svg PUBLIC "-//W3C//DTD SVG 1.1//EN" "http://www.w3.org/Graphics/SVG/1.1/DTD/svg11.dtd"><svg t="1775885949413" class="icon" viewBox="0 0 1024 1024" version="1.1" xmlns="http://www.w3.org/2000/svg" p-id="10987" xmlns:xlink="http://www.w3.org/1999/xlink" width="200" height="200"><path d="M671.6 334H351.1c-28.7 0-52-23.3-52-52V118.2c0-28.7 23.3-52 52-52h320.6c28.7 0 52 23.3 52 52V282c-0.1 28.7-23.4 52-52.1 52z m-308.5-64h296.6V130.2H363.1V270zM427.4 927.6H148.1c-28.7 0-52-23.3-52-52V711.8c0-28.7 23.3-52 52-52h279.3c28.7 0 52 23.3 52 52v163.9c0 28.6-23.3 51.9-52 51.9z m-267.3-64h255.3V723.8H160.1v139.8zM874.6 927.3H595.4c-28.7 0-52-23.3-52-52V711.4c0-28.7 23.3-52 52-52h279.1c28.7 0 52 23.3 52 52v163.9c0.1 28.6-23.3 52-51.9 52z m-267.2-64h255.1V723.4H607.4v139.9z" p-id="10988"></path><path d="M479.6 325.4h64v140.3h-64zM255.8 518.8h64v140.3h-64zM704.1 518.8h64v140.3h-64z" p-id="10989"></path><path d="M255.8 464.7h512.4v64H255.8z" p-id="10990"></path></svg>