<?xml version="1.0" standalone="no"?><!DOCTYPE svg PUBLIC "-//W3C//DTD SVG 1.1//EN" "http://www.w3.org/Graphics/SVG/1.1/DTD/svg11.dtd"><svg t="1775877882469" class="icon" viewBox="0 0 1024 1024" version="1.1" xmlns="http://www.w3.org/2000/svg" p-id="16472" xmlns:xlink="http://www.w3.org/1999/xlink" width="200" height="200"><path d="M205.64941 780.947127h612.609635L971.845314 408.955979l-182.220997-65.773103V86.771903H555.340179V0H468.568276v86.771903H234.284138v256.410973L52.063142 408.955979z m554.559232-86.771903H263.699813L166.949141 459.891086l159.052899-57.356228L468.568276 353.335189V503.277038h86.771903V353.335189l142.566237 49.026125L856.959314 459.891086zM321.056041 173.543806h381.796373v138.314413L511.954228 242.961328l-190.898187 68.896891zM966.899315 843.596441l-92.325304 79.569835-92.412077-79.569835a43.385952 43.385952 0 0 0-56.922369 0l-92.412076 79.569835-92.412077-79.569835a43.385952 43.385952 0 0 0-56.922368 0l-92.412077 79.569835-92.412077-79.569835a43.385952 43.385952 0 0 0-56.922368 0l-92.412077 79.569835-92.325305-79.569835L0 909.196l120.873261 104.126283a43.385952 43.385952 0 0 0 57.00914 0l92.325305-79.569835 92.412077 79.569835a43.385952 43.385952 0 0 0 56.922368 0L511.954228 933.752448l92.412077 79.569835a43.385952 43.385952 0 0 0 56.922368 0l92.412077-79.569835 92.325304 79.569835a43.385952 43.385952 0 0 0 57.009141 0l120.873261-104.126283z" p-id="16473"></path></svg>