<?xml version="1.0" standalone="no"?><!DOCTYPE svg PUBLIC "-//W3C//DTD SVG 1.1//EN" "http://www.w3.org/Graphics/SVG/1.1/DTD/svg11.dtd"><svg t="1775877968510" class="icon" viewBox="0 0 1024 1024" version="1.1" xmlns="http://www.w3.org/2000/svg" p-id="20416" xmlns:xlink="http://www.w3.org/1999/xlink" width="200" height="200"><path d="M159.36 853.333333A31.274667 31.274667 0 0 1 128 822.314667V201.685333c0-17.066667 14.08-31.018667 31.36-31.018666h705.28c17.237333 0 31.36 13.952 31.36 31.018666v620.629334c0 17.066667-14.08 31.018667-31.36 31.018666H159.36z m31.317333-62.037333h642.645334V232.746667H190.677333v558.506666z m96.426667-187.349333l155.136-153.6 83.072 82.218666L632.32 426.666667l-62.293333-61.653334h169.258666v167.552l-62.293333-61.696-151.253333 149.76-83.072-82.261333-110.848 109.781333-44.288-43.818666-0.426667-0.426667z" p-id="20417"></path></svg>