<?xml version="1.0" standalone="no"?><!DOCTYPE svg PUBLIC "-//W3C//DTD SVG 1.1//EN" "http://www.w3.org/Graphics/SVG/1.1/DTD/svg11.dtd"><svg t="1775845821481" class="icon" viewBox="0 0 1024 1024" version="1.1" xmlns="http://www.w3.org/2000/svg" p-id="3775" xmlns:xlink="http://www.w3.org/1999/xlink" width="200" height="200"><path d="M787.2 350.592l86.08-22.848a388.736 388.736 0 0 0-218.24-260.096l-37.44 80.64C519.936 75.904 381.952 30.016 289.856 107.328a373.632 373.632 0 0 0 136 651.2v134.4h-146.56a32 32 0 0 0 0 64h430.528a32 32 0 0 0 0-64H489.856v-122.432a373.632 373.632 0 0 0 280.256-89.6c92.224-77.504 70.784-221.888 17.088-330.304zM589.888 208.256l-102.4 221.632 235.712-62.4c99.776 186.88 32 334.784-140.224 276.48A475.776 475.776 0 0 1 293.76 298.816c-28.48-186.944 135.936-216.768 296.128-90.56zM230.4 304.256a533.824 533.824 0 0 0 334.528 400.896A308.352 308.352 0 0 1 230.4 304.256z" p-id="3776"></path></svg>