<?xml version="1.0" standalone="no"?><!DOCTYPE svg PUBLIC "-//W3C//DTD SVG 1.1//EN" "http://www.w3.org/Graphics/SVG/1.1/DTD/svg11.dtd"><svg t="1775877346649" class="icon" viewBox="0 0 1024 1024" version="1.1" xmlns="http://www.w3.org/2000/svg" p-id="4253" xmlns:xlink="http://www.w3.org/1999/xlink" width="200" height="200"><path d="M917.161316 366.65108c41.414973 0 75.093083 33.962553 75.093083 75.889525v505.56987c0 41.926971-33.67811 75.889525-75.093083 75.889525h-100.124111a75.548193 75.548193 0 0 1-75.149971-75.889525V442.426827c0-41.870083 33.564333-75.889525 75.093083-75.889524h100.12411v0.113777zM216.292541 467.742299c41.414973 0 75.093083 33.962553 75.093083 75.889524v404.421763c0 41.870083-33.67811 75.889525-75.093083 75.889525h-100.12411a75.548193 75.548193 0 0 1-75.093083-75.889525V543.518046c0-41.870083 33.621221-75.889525 75.093083-75.889525h100.12411v0.113778z m350.434388 101.091218c41.414973 0 75.093083 33.962553 75.093083 75.889525v303.330544c0 41.870083-33.67811 75.889525-75.093083 75.889525h-100.124111a75.548193 75.548193 0 0 1-75.093083-75.889525v-303.330544c0-41.926971 33.564333-75.889525 75.093083-75.889525h100.124111z m259.128025-492.314803l-59.05047 0.398221a37.830985 37.830985 0 0 1-37.887874-37.717208 37.717208 37.717208 0 0 1 37.20521-38.115428L916.876873 0.003413a37.091432 37.091432 0 0 1 34.98655 23.608811c1.706661 3.982209 2.787546 9.045303 2.787546 14.279063v152.404825a37.774096 37.774096 0 0 1-37.546542 37.944763 37.774096 37.774096 0 0 1-37.489652-37.944763v-60.870908L543.288785 469.221405a37.148321 37.148321 0 0 1-41.756306 7.85064L50.803315 274.775831A38.115429 38.115429 0 0 1 52.509976 204.802731a37.489653 37.489653 0 0 1 28.785682 0.682664L508.245346 397.086534l317.552719-320.624709z" p-id="4254"></path></svg>