<svg xmlns="http://www.w3.org/2000/svg" width="640" height="360" viewBox="0 0 640 360" fill="none">
  <defs>
    <linearGradient id="skyRed" x1="0" y1="0" x2="0" y2="1">
      <stop offset="0" stop-color="#9FD0FF"/>
      <stop offset="1" stop-color="#E5F0FF"/>
    </linearGradient>
    <linearGradient id="seaRed" x1="0" y1="0" x2="0" y2="1">
      <stop offset="0" stop-color="#7FB5D4"/>
      <stop offset="1" stop-color="#5A8AA6"/>
    </linearGradient>
  </defs>
  <rect width="640" height="360" fill="url(#skyRed)"/>
  <rect y="248" width="640" height="112" fill="url(#seaRed)"/>
  <path d="M472 118L535 84L558 84L531 118H472Z" fill="#E8EEF7"/>
  <rect x="456" y="118" width="94" height="38" rx="6" fill="#F7FBFF"/>
  <rect x="486" y="84" width="8" height="78" rx="4" fill="#E8EEF7"/>
  <rect x="150" y="182" width="324" height="34" rx="17" fill="#72533C"/>
  <path d="M118 216H514L486 258H146L118 216Z" fill="#B5453A"/>
  <rect x="176" y="146" width="28" height="28" fill="#E3864E"/>
  <rect x="208" y="146" width="28" height="28" fill="#4C7EDB"/>
  <rect x="240" y="146" width="28" height="28" fill="#D84A44"/>
  <rect x="272" y="146" width="28" height="28" fill="#2CA07D"/>
  <rect x="304" y="146" width="28" height="28" fill="#E2B651"/>
  <rect x="336" y="146" width="28" height="28" fill="#D84A44"/>
  <rect x="368" y="146" width="28" height="28" fill="#4C7EDB"/>
  <rect x="400" y="146" width="28" height="28" fill="#E3864E"/>
  <rect x="192" y="114" width="28" height="28" fill="#D84A44"/>
  <rect x="224" y="114" width="28" height="28" fill="#2CA07D"/>
  <rect x="256" y="114" width="28" height="28" fill="#E2B651"/>
  <rect x="288" y="114" width="28" height="28" fill="#4C7EDB"/>
  <rect x="320" y="114" width="28" height="28" fill="#D84A44"/>
  <rect x="352" y="114" width="28" height="28" fill="#2CA07D"/>
  <rect x="384" y="114" width="28" height="28" fill="#E3864E"/>
  <path d="M0 256C64 246 113 246 163 256C223 268 270 268 337 256C397 245 451 246 510 256C556 264 599 264 640 256V360H0V256Z" fill="#8BC0DA" opacity=".45"/>
</svg>
